<?xml version="1.0" standalone="no"?>
<!DOCTYPE svg PUBLIC "-//W3C//DTD SVG 20010904//EN"
 "http://www.w3.org/TR/2001/REC-SVG-20010904/DTD/svg10.dtd">
<svg version="1.0" xmlns="http://www.w3.org/2000/svg"
 width="300.000000pt" height="300.000000pt" viewBox="0 0 300.000000 300.000000"
 preserveAspectRatio="xMidYMid meet">
<metadata>
Created by potrace 1.11, written by Peter Selinger 2001-2013
</metadata>
<g transform="translate(0.000000,300.000000) scale(0.100000,-0.100000)"
fill="#000000" stroke="none">
<path d="M1320 2994 c-207 -38 -329 -75 -467 -140 -291 -139 -552 -391 -693
-671 -108 -214 -150 -384 -157 -638 -4 -155 -2 -196 16 -300 111 -614 574
-1089 1192 -1222 120 -26 448 -26 569 0 480 104 863 397 1073 822 48 98 96
235 124 360 26 115 26 454 0 575 -68 312 -206 570 -422 785 -211 211 -440 339
-730 406 -71 16 -132 21 -285 24 -107 2 -206 1 -220 -1z m140 -414 c6 8 10 10
10 3 0 -6 8 -10 18 -8 9 1 23 -3 31 -9 12 -9 13 -7 7 8 -6 18 -5 19 11 5 10
-8 37 -14 61 -14 23 0 42 -2 42 -5 0 -3 14 -7 32 -8 17 -2 37 -7 43 -12 7 -5
15 -7 18 -3 4 3 13 0 22 -7 8 -7 15 -10 15 -6 0 4 10 0 23 -9 13 -8 27 -12 30
-8 4 3 7 2 7 -4 0 -10 36 -26 53 -24 4 1 7 -4 7 -10 0 -5 5 -7 10 -4 6 3 10 1
10 -4 0 -6 7 -11 15 -11 7 0 19 -8 24 -17 6 -10 11 -14 11 -10 0 4 6 2 14 -5
8 -7 12 -16 9 -20 -2 -5 4 -8 13 -8 10 0 15 -3 11 -6 -6 -6 2 -19 39 -59 12
-13 19 -26 16 -29 -3 -3 0 -6 7 -6 8 0 11 -6 7 -16 -3 -8 -2 -12 4 -9 6 3 11
1 11 -4 3 -26 4 -30 11 -36 4 -4 4 -13 1 -21 -3 -8 0 -14 6 -14 6 0 8 -7 4
-17 -5 -12 -3 -14 8 -8 12 7 12 6 1 -7 -10 -13 -10 -17 1 -21 10 -4 12 -28 9
-107 -3 -84 -1 -101 10 -94 7 4 5 -1 -4 -12 -14 -16 -15 -23 -6 -32 7 -7 8
-12 2 -12 -9 0 -13 -16 -14 -63 -1 -9 -6 -15 -12 -11 -6 4 -8 -1 -4 -12 4 -13
-4 -31 -24 -54 -17 -19 -30 -38 -30 -42 0 -5 -7 -8 -15 -8 -8 0 -15 -7 -15
-15 0 -8 -5 -15 -11 -15 -5 0 -8 -4 -5 -9 3 -5 -10 -19 -28 -32 -19 -13 -32
-28 -29 -33 3 -5 1 -6 -5 -2 -6 3 -13 2 -17 -4 -4 -6 -11 -8 -16 -5 -5 4 -9 1
-9 -5 0 -6 -4 -8 -10 -5 -5 3 -10 2 -10 -4 0 -5 -20 -13 -45 -17 -25 -3 -45
-11 -45 -17 0 -6 -3 -8 -6 -4 -16 15 -133 -64 -127 -85 3 -8 -13 -12 -30 -9
-5 1 -6 -2 -3 -7 3 -4 -8 -21 -25 -36 -16 -15 -27 -32 -23 -37 3 -5 0 -9 -6
-9 -6 0 -8 -4 -5 -10 3 -5 2 -10 -2 -10 -5 0 -9 -10 -10 -22 -1 -13 -4 -34 -6
-48 -3 -14 -8 -45 -11 -70 -3 -25 -8 -61 -11 -80 -4 -19 -7 -40 -7 -47 -1 -7
-4 -10 -8 -8 -3 2 -14 -5 -23 -16 -17 -20 -77 -27 -77 -9 0 6 -7 10 -15 10 -9
0 -19 8 -22 18 -4 9 -19 37 -35 61 -15 25 -28 58 -28 73 0 15 -5 28 -11 28 -6
0 -7 5 -2 13 11 17 12 36 4 42 -7 4 -5 76 3 115 1 8 6 33 11 55 14 68 82 175
112 175 7 0 13 5 13 11 0 5 5 7 10 4 6 -3 10 -1 10 5 0 5 16 18 35 27 19 9 35
20 35 23 0 4 22 17 50 30 27 13 46 28 43 33 -3 6 -1 7 5 3 6 -3 16 0 24 7 7 7
27 22 45 32 18 10 30 22 27 27 -3 4 1 8 9 8 8 0 28 16 43 36 16 19 35 42 42
50 7 8 10 14 5 14 -4 0 -2 4 5 9 7 4 14 18 15 29 1 12 6 22 12 22 5 0 3 5 -5
10 -8 5 -10 10 -4 10 18 0 7 73 -17 114 -11 20 -27 36 -34 36 -7 0 -18 14 -24
30 -5 17 -17 30 -25 30 -9 0 -16 7 -16 16 0 8 -4 12 -10 9 -5 -3 -10 -3 -10 2
0 8 -62 39 -69 34 -2 -1 -7 2 -10 8 -4 6 -23 13 -42 15 -18 3 -34 6 -34 7 0 8
-113 4 -124 -5 -12 -9 -13 -8 -6 4 8 13 7 13 -8 1 -9 -7 -17 -10 -17 -6 0 4
-7 1 -17 -6 -9 -8 -18 -13 -20 -11 -10 7 -23 1 -18 -9 4 -6 1 -10 -6 -8 -26 3
-39 -1 -39 -12 0 -5 5 -7 12 -3 7 4 8 3 4 -5 -6 -9 -11 -9 -21 -1 -10 8 -15 8
-21 -1 -5 -8 -3 -10 7 -5 8 4 5 0 -5 -8 -11 -9 -23 -16 -28 -16 -4 0 -7 -6 -5
-12 1 -7 -3 -12 -10 -11 -6 2 -15 -6 -18 -18 -4 -11 -17 -30 -30 -43 -13 -13
-21 -27 -18 -30 4 -3 -1 -6 -11 -6 -9 0 -15 -4 -12 -9 4 -5 2 -11 -4 -13 -5
-1 -11 -13 -13 -25 -2 -12 -7 -26 -12 -30 -4 -5 -5 -1 0 7 4 8 -1 6 -12 -5
-11 -11 -19 -22 -18 -25 2 -3 -4 -12 -13 -20 -14 -13 -15 -12 -9 5 6 16 3 15
-14 -5 -11 -14 -18 -19 -14 -12 3 6 1 12 -4 12 -6 0 -11 -6 -11 -12 0 -10 -2
-10 -8 -1 -5 7 -20 14 -34 15 -16 1 -24 7 -21 15 3 7 -2 16 -11 19 -9 3 -16
17 -16 31 0 16 -4 22 -12 17 -7 -5 -9 -2 -5 9 3 8 -1 21 -9 28 -10 8 -11 15
-4 24 8 9 7 15 -2 18 -8 3 -5 6 7 7 19 1 19 1 2 11 -12 7 -15 15 -9 22 5 7 8
22 7 34 -1 15 3 19 14 15 14 -5 14 -3 2 11 -12 15 -11 17 3 17 10 0 15 4 12 9
-3 5 1 11 9 15 8 3 12 12 9 21 -3 8 -1 15 5 15 5 0 16 10 22 23 12 21 11 21
-7 7 -18 -14 -18 -14 -1 6 9 11 14 24 10 29 -5 4 -3 5 4 1 14 -8 67 39 59 52
-3 5 1 9 9 9 8 0 11 -5 8 -11 -3 -6 4 -1 15 11 12 12 38 30 58 39 26 13 32 19
22 26 -9 6 -6 7 9 3 12 -3 24 -1 28 5 3 6 11 8 16 5 5 -4 9 -1 9 5 0 6 5 8 12
4 8 -5 9 -2 4 11 -5 15 -4 16 9 5 12 -10 15 -10 16 1 0 10 2 11 6 2 2 -7 9
-13 15 -13 6 0 8 6 5 13 -4 10 3 13 24 12 15 -1 26 2 23 7 -3 5 0 9 7 7 38 -5
80 2 74 12 -4 6 3 5 14 -3 18 -11 23 -11 31 2z m0 -1686 c31 -2 110 -36 110
-47 0 -4 5 -5 10 -2 6 3 10 -1 10 -9 0 -9 3 -16 8 -16 8 0 32 -49 32 -67 0 -7
6 -13 13 -13 8 0 7 -4 -3 -10 -8 -5 -10 -10 -5 -10 6 0 11 -13 10 -30 0 -16
-3 -30 -6 -30 -4 0 -5 -13 -3 -30 2 -16 -1 -30 -6 -30 -5 0 -7 -6 -4 -13 3 -8
-13 -33 -36 -57 -22 -23 -40 -40 -40 -36 0 4 -15 -1 -32 -11 -18 -9 -39 -16
-45 -15 -7 2 -13 -2 -13 -7 0 -10 -32 -7 -50 4 -6 3 -10 0 -10 -7 0 -8 -3 -9
-8 -3 -7 10 -27 17 -49 18 -7 0 -13 4 -13 9 0 5 -4 7 -9 4 -5 -3 -11 1 -15 9
-3 8 -10 15 -16 15 -13 0 -46 30 -33 30 4 0 2 4 -5 9 -7 4 -14 14 -15 22 -2 8
-7 20 -11 28 -7 10 -5 12 3 6 10 -6 11 -3 3 11 -14 28 -5 123 17 166 10 21 13
35 7 32 -6 -3 -3 1 6 9 10 8 15 17 11 20 -3 4 1 7 10 7 9 0 21 8 26 18 6 9 11
13 11 8 0 -5 8 -2 17 5 15 12 16 12 8 -1 -6 -12 -5 -13 6 -2 7 6 23 12 35 12
13 0 26 5 30 11 3 6 9 7 13 2 3 -4 17 -9 31 -9z"/>
</g>
</svg>
